<?xml version="1.0" standalone="no"?><svg xmlns="http://www.w3.org/2000/svg" viewBox="0 0 1440 320"><path fill="#F8B516" fill-opacity="1" d="M0,224L40,197.3C80,171,160,117,240,122.7C320,128,400,192,480,208C560,224,640,192,720,181.3C800,171,880,181,960,208C1040,235,1120,277,1200,288C1280,299,1360,277,1400,266.7L1440,256L1440,320L1400,320C1360,320,1280,320,1200,320C1120,320,1040,320,960,320C880,320,800,320,720,320C640,320,560,320,480,320C400,320,320,320,240,320C160,320,80,320,40,320L0,320Z"></path></svg>